<svg width="37" height="37" viewBox="0 0 37 37" fill="none" xmlns="http://www.w3.org/2000/svg">
<rect width="37" height="37" rx="10" fill="black"/>
<path d="M32 18.5C32 25.9558 25.9558 32 18.5 32C11.0442 32 5 25.9558 5 18.5C5 11.0442 11.0442 5 18.5 5C25.9558 5 32 11.0442 32 18.5Z" fill="#E4B51E"/>
<path d="M12.001 13.6464C12.0011 13.234 12.1146 12.8295 12.3291 12.4772C12.5436 12.1248 12.8508 11.8383 13.2171 11.6487C13.5835 11.4592 13.9949 11.374 14.4064 11.4025C14.8178 11.431 15.2136 11.572 15.5503 11.8102C15.8871 12.0484 16.1519 12.3746 16.3157 12.7531C16.4796 13.1316 16.5363 13.5479 16.4796 13.9564C16.4229 14.365 16.255 14.7501 15.9943 15.0696C15.7335 15.3892 15.3899 15.631 15.001 15.7684V21.0244C15.5017 21.2014 15.9237 21.5496 16.1925 22.0076C16.4612 22.4656 16.5594 23.0039 16.4696 23.5273C16.3799 24.0507 16.108 24.5255 15.702 24.8678C15.296 25.2101 14.782 25.3978 14.251 25.3978C13.72 25.3978 13.206 25.2101 12.8 24.8678C12.3941 24.5255 12.1221 24.0507 12.0324 23.5273C11.9426 23.0039 12.0408 22.4656 12.3096 22.0076C12.5783 21.5496 13.0003 21.2014 13.501 21.0244V15.7684C13.0622 15.6133 12.6823 15.3259 12.4137 14.9459C12.145 14.5658 12.0009 14.1119 12.001 13.6464ZM17.678 13.4694L20.074 11.0734C20.109 11.0384 20.1536 11.0145 20.2021 11.0048C20.2507 10.9951 20.301 11.0001 20.3467 11.0191C20.3925 11.038 20.4315 11.0701 20.459 11.1113C20.4865 11.1525 20.5011 11.2009 20.501 11.2504V12.8964H21.501C22.164 12.8964 22.7999 13.1598 23.2688 13.6287C23.7376 14.0975 24.001 14.7334 24.001 15.3964V21.0244C24.5017 21.2014 24.9237 21.5496 25.1925 22.0076C25.4612 22.4656 25.5594 23.0039 25.4696 23.5273C25.3799 24.0507 25.108 24.5255 24.702 24.8678C24.296 25.2101 23.782 25.3978 23.251 25.3978C22.72 25.3978 22.206 25.2101 21.8 24.8678C21.3941 24.5255 21.1221 24.0507 21.0324 23.5273C20.9426 23.0039 21.0408 22.4656 21.3096 22.0076C21.5783 21.5496 22.0003 21.2014 22.501 21.0244V15.3964C22.501 15.1312 22.3956 14.8769 22.2081 14.6893C22.0206 14.5018 21.7662 14.3964 21.501 14.3964H20.501V16.0424C20.5011 16.092 20.4865 16.1404 20.459 16.1816C20.4315 16.2228 20.3925 16.2549 20.3467 16.2738C20.301 16.2928 20.2507 16.2977 20.2021 16.2881C20.1536 16.2784 20.109 16.2545 20.074 16.2194L17.678 13.8234C17.6547 13.8002 17.6363 13.7726 17.6236 13.7423C17.611 13.7119 17.6046 13.6793 17.6046 13.6464C17.6046 13.6136 17.611 13.581 17.6236 13.5506C17.6363 13.5203 17.6547 13.4927 17.678 13.4694ZM14.251 12.8964C14.0521 12.8964 13.8613 12.9755 13.7207 13.1161C13.58 13.2568 13.501 13.4475 13.501 13.6464C13.501 13.8454 13.58 14.0361 13.7207 14.1768C13.8613 14.3174 14.0521 14.3964 14.251 14.3964C14.4499 14.3964 14.6407 14.3174 14.7813 14.1768C14.922 14.0361 15.001 13.8454 15.001 13.6464C15.001 13.4475 14.922 13.2568 14.7813 13.1161C14.6407 12.9755 14.4499 12.8964 14.251 12.8964ZM14.251 22.3964C14.0521 22.3964 13.8613 22.4755 13.7207 22.6161C13.58 22.7568 13.501 22.9475 13.501 23.1464C13.501 23.3454 13.58 23.5361 13.7207 23.6768C13.8613 23.8174 14.0521 23.8964 14.251 23.8964C14.4499 23.8964 14.6407 23.8174 14.7813 23.6768C14.922 23.5361 15.001 23.3454 15.001 23.1464C15.001 22.9475 14.922 22.7568 14.7813 22.6161C14.6407 22.4755 14.4499 22.3964 14.251 22.3964ZM22.501 23.1464C22.501 23.3454 22.58 23.5361 22.7207 23.6768C22.8613 23.8174 23.0521 23.8964 23.251 23.8964C23.4499 23.8964 23.6407 23.8174 23.7813 23.6768C23.922 23.5361 24.001 23.3454 24.001 23.1464C24.001 22.9475 23.922 22.7568 23.7813 22.6161C23.6407 22.4755 23.4499 22.3964 23.251 22.3964C23.0521 22.3964 22.8613 22.4755 22.7207 22.6161C22.58 22.7568 22.501 22.9475 22.501 23.1464Z" fill="black"/>
</svg>
